HIERARCHY
ROOT Hips
{
	OFFSET -3.958830 18.904000 13.208200
	CHANNELS 6 Xposition Yposition Zposition Zrotation Yrotation Xrotation 
	JOINT LHipJoint
	{
		OFFSET 0.000000 0.000000 0.000000
		CHANNELS 3 Zrotation Yrotation Xrotation
		JOINT LeftUpLeg
		{
			OFFSET 1.800000 -1.400000 0.085000
			CHANNELS 3 Zrotation Yrotation Xrotation
			JOINT LeftLeg
			{
				OFFSET 2.215000 -6.000000 0.000000
				CHANNELS 3 Zrotation Yrotation Xrotation
				JOINT LeftFoot
				{
					OFFSET 2.500000 -6.900000 0.000000
					CHANNELS 3 Zrotation Yrotation Xrotation
					JOINT LeftToeBase
					{
						OFFSET 0.200000 -0.500000 1.950000
						CHANNELS 3 Zrotation Yrotation Xrotation
						End Site
						{
							OFFSET 0.000000 0.000000 0.000000
						}
					}
				}
			}
		}
	}
	JOINT RHipJoint
	{
		OFFSET 0.000000 0.000000 0.000000
		CHANNELS 3 Zrotation Yrotation Xrotation
		JOINT RightUpLeg
		{
			OFFSET -1.800000 -1.400000 0.085000
			CHANNELS 3 Zrotation Yrotation Xrotation
			JOINT RightLeg
			{
				OFFSET -2.215000 -6.000000 0.000000
				CHANNELS 3 Zrotation Yrotation Xrotation
				JOINT RightFoot
				{
					OFFSET -2.500000 -6.900000 0.000000
					CHANNELS 3 Zrotation Yrotation Xrotation
					JOINT RightToeBase
					{
						OFFSET -0.200000 -0.500000 1.950000
						CHANNELS 3 Zrotation Yrotation Xrotation
						End Site
						{
							OFFSET 0.000000 0.000000 0.000000
						}
					}
				}
			}
		}
	}
	JOINT LowerBack
	{
		OFFSET 0.000000 0.000000 0.000000
		CHANNELS 3 Zrotation Yrotation Xrotation
		JOINT Spine
		{
			OFFSET -0.087000 1.940000 -0.288900
			CHANNELS 3 Zrotation Yrotation Xrotation
			JOINT Spine1
			{
				OFFSET 0.000000 1.950000 0.060000
				CHANNELS 3 Zrotation Yrotation Xrotation
				JOINT Neck
				{
					OFFSET 0.000000 0.000000 0.000000
					CHANNELS 3 Zrotation Yrotation Xrotation
					JOINT Neck1
					{
						OFFSET 0.000000 1.600000 0.340000
						CHANNELS 3 Zrotation Yrotation Xrotation
						JOINT Head
						{
							OFFSET 0.000000 1.667000 -0.240000
							CHANNELS 3 Zrotation Yrotation Xrotation
							End Site
							{
								OFFSET 0.000000 0.000000 0.000000
							}
						}
					}
				}
				JOINT LeftShoulder
				{
					OFFSET 0.000000 0.000000 0.000000
					CHANNELS 3 Zrotation Yrotation Xrotation
					JOINT LeftArm
					{
						OFFSET 2.700000 1.550000 -0.730000
						CHANNELS 3 Zrotation Yrotation Xrotation
						JOINT LeftForeArm
						{
							OFFSET 5.450000 0.000000 0.000000
							CHANNELS 3 Zrotation Yrotation Xrotation
							JOINT LeftHand
							{
								OFFSET 3.450000 0.000000 0.000000
								CHANNELS 3 Zrotation Yrotation Xrotation
								JOINT LeftHandIndex1
								{
									OFFSET 0.750000 0.000000 0.000000
									CHANNELS 3 Zrotation Yrotation Xrotation
									End Site
									{
										OFFSET 0.000000 0.000000 0.000000
									}
								}
							}
						}
					}
				}
				JOINT RightShoulder
				{
					OFFSET 0.000000 0.000000 0.000000
					CHANNELS 3 Zrotation Yrotation Xrotation
					JOINT RightArm
					{
						OFFSET -2.700000 1.550000 -0.730000
						CHANNELS 3 Zrotation Yrotation Xrotation
						JOINT RightForeArm
						{
							OFFSET -5.450000 0.000000 0.000000
							CHANNELS 3 Zrotation Yrotation Xrotation
							JOINT RightHand
							{
								OFFSET -3.450000 0.000000 0.000000
								CHANNELS 3 Zrotation Yrotation Xrotation
								JOINT RightHandIndex1
								{
									OFFSET -0.750000 0.000000 0.000000
									CHANNELS 3 Zrotation Yrotation Xrotation
									End Site
									{
										OFFSET 0.000000 0.000000 0.000000
									}
								}
							}
						}
					}
				}
			}
		}
	}
}
MOTION
Frames: 8
Frame Time: 0.016667
2.306740 16.728460 0.469540 15.085427 19.082314 -3.075285 -14.675393 12.474059 3.051114 7.156846 -3.145904 -17.334243 -10.990726 13.963097 39.150085 0.506994 8.243982 1.620854 0.231830 0.085060 0.200420 18.704908 -12.200201 1.634311 -36.638262 -0.414560 -8.618107 -1.992531 -8.631410 30.312458 -0.381674 -6.220111 2.012455 0.147670 0.059430 0.072510 -5.439809 0.710882 -7.332340 24.589667 -2.251204 6.195890 -7.455676 -2.663875 14.101417 3.720158 -5.814054 -12.415866 -11.909300 3.235388 41.917857 -6.879270 -0.654840 -4.161360 -13.605824 -16.700217 10.554449 -44.138736 -2.645475 -4.074778 -26.088484 -49.015776 8.454034 -3.557423 3.283515 0.185770 0.075400 -0.047780 0.043520 6.398067 22.631726 4.837608 38.784334 34.881658 5.512858 26.218515 63.955260 14.852250 2.025742 -1.645229 -0.109610 0.131390 0.008000 -0.132880 
2.408550 16.825670 0.458390 15.473773 18.680657 -2.425379 -14.669307 12.187154 3.178714 8.562174 -3.268459 -18.395974 -14.019607 14.885647 37.392330 0.505248 8.351167 1.574788 0.259420 0.124470 0.221800 18.726414 -12.137927 1.703069 -37.374027 -0.493093 -7.697864 -2.072021 -8.139794 26.643283 -0.374805 -5.972224 2.103322 0.175900 0.056950 0.063860 -5.433864 1.008355 -7.493580 24.260805 -0.942300 6.101634 -2.494587 -2.337899 14.316223 1.918268 -4.101974 -12.917895 -8.265010 0.625818 40.301414 -5.466660 -1.426530 -6.148650 -9.428734 -18.393602 10.851025 -39.015007 -3.569078 -2.633160 -32.387182 -50.813296 12.282066 -3.545376 3.307079 0.210000 0.063730 -0.029400 0.050550 6.003617 23.098683 5.242362 40.703218 35.068599 5.699154 21.757475 58.983185 11.087031 2.011363 -1.568318 -0.119810 0.163190 -0.004710 -0.138540 
2.501360 16.927640 0.431460 15.393598 18.883605 -2.298662 -14.664519 11.853769 3.387820 10.611578 -3.418643 -20.152060 -16.864647 16.209513 37.071452 0.566335 8.750094 1.412428 0.282140 0.152390 0.248500 18.749798 -12.060928 1.750907 -37.695054 -0.435054 -6.599618 -2.024513 -7.796017 23.829818 -0.391722 -5.826110 2.151982 0.188590 0.027220 0.060090 -5.453733 1.341005 -7.709821 24.396471 0.278143 6.752410 2.494222 -2.063406 14.316132 -0.091869 -2.652356 -13.608324 -5.299394 -2.065344 39.237491 -4.546210 -2.548190 -8.043150 -5.496138 -19.717888 10.966971 -30.262034 -2.325448 -1.773040 -43.072737 -54.087838 19.369268 -3.494286 3.380386 0.242920 0.034310 0.001090 0.041560 6.189685 23.407205 5.612022 41.544045 34.466308 4.918406 17.644802 54.305921 8.003997 2.010774 -1.513115 -0.116980 0.174250 -0.012500 -0.147880 
2.606510 17.015520 0.401600 15.004987 19.190380 -2.243490 -14.672763 11.516708 3.644866 12.838818 -3.549203 -22.205256 -19.400500 17.534106 37.175371 0.655316 9.187850 1.234249 0.314880 0.196450 0.274730 18.772284 -11.933101 1.804466 -38.080116 -0.435092 -6.000864 -1.511764 -7.715975 21.845794 -0.423307 -5.760180 2.167544 0.200230 -0.016240 0.060760 -5.454532 1.595073 -7.962132 24.705017 1.415820 7.848079 6.767671 -1.603460 13.842048 -1.882862 -1.175210 -14.241752 -2.400107 -4.319379 38.515525 -3.567250 -3.397310 -9.662310 -2.549338 -20.808158 10.619752 -19.814093 -0.867174 -1.034589 -49.820262 -54.964539 24.348729 -3.403919 3.445774 0.271930 -0.001530 0.042060 0.039600 6.752092 23.422509 5.951085 41.731491 33.550747 3.736017 14.448847 50.858420 5.849175 2.009554 -1.498719 -0.097290 0.168720 -0.032450 -0.152020 
2.720290 17.116570 0.372210 14.144477 19.171177 -2.479412 -14.690442 11.235074 3.925701 15.070916 -3.581671 -24.396584 -21.246069 18.646633 37.569933 0.729070 9.582474 1.067491 0.344790 0.232350 0.312760 18.780671 -11.769937 1.863954 -37.990653 -0.411580 -5.321878 -0.711845 -7.613447 19.692310 -0.456888 -5.665413 2.198257 0.202550 -0.070570 0.057520 -5.421347 1.725776 -8.213239 25.159384 2.573372 9.300767 10.456377 -0.845278 13.202016 -3.352657 0.334890 -14.839273 0.409769 -6.031510 39.215211 -2.789990 -3.727980 -10.882960 0.137699 -21.574951 9.836828 -9.022383 -0.004937 -0.337797 -51.898122 -53.016082 25.525319 -3.277776 3.481136 0.313720 -0.043940 0.092190 0.031690 6.857614 23.045646 6.357191 42.117222 32.286239 2.332891 11.965778 48.119027 4.216504 2.014535 -1.485522 -0.080050 0.162560 -0.053790 -0.164720 
2.819370 17.184860 0.354540 13.541454 19.284810 -2.623244 -14.732994 10.943012 4.303049 17.396166 -3.438051 -27.037425 -23.219873 20.296712 38.690474 0.887117 10.195071 0.866101 0.334300 0.223500 0.304500 18.776670 -11.595142 1.851002 -38.061956 -0.271610 -4.709039 -0.309734 -7.547846 18.656501 -0.465267 -5.647096 2.215940 0.182210 -0.075530 0.051320 -5.337710 1.791133 -8.475461 24.653462 3.766413 10.704983 14.338807 -0.062707 12.949491 -5.016931 0.852230 -15.693119 1.442966 -6.886840 40.395874 -2.207990 -4.079070 -9.972020 3.631537 -22.072221 9.064499 -1.050455 0.726161 -0.110998 -48.366043 -48.691568 22.300442 -3.113408 3.530433 0.313580 -0.054900 0.102300 0.037450 6.640882 23.244624 6.949433 41.797639 31.608683 1.122435 10.146545 45.513823 3.084380 2.021757 -1.497097 -0.070350 0.157760 -0.061550 -0.154540 
2.912970 17.250110 0.339880 13.151207 19.471298 -2.574204 -14.798872 10.637899 4.720991 19.549530 -3.254802 -29.930955 -25.057344 22.121497 40.164397 1.036953 10.862847 0.657109 0.321300 0.214950 0.296280 18.763310 -11.388096 1.825673 -38.233793 -0.159965 -4.362600 0.133512 -7.519149 17.811798 -0.465974 -5.637970 2.228805 0.173860 -0.068790 0.041850 -5.203985 1.820884 -8.731059 23.369600 4.832969 12.381872 17.614833 0.750704 12.793995 -6.587167 1.415337 -16.141240 2.624435 -7.263545 41.405029 -1.945470 -3.774500 -9.158210 6.970186 -21.722912 8.096690 5.697781 2.405186 -0.140564 -43.899053 -46.492923 19.943054 -2.919296 3.647463 0.315760 -0.051940 0.104150 0.040850 6.414173 22.758932 7.252584 42.552793 31.685943 0.552234 7.768324 42.796593 1.855834 2.028258 -1.490574 -0.077140 0.166220 -0.061480 -0.152970 
2.994260 17.308060 0.319840 12.942782 19.886868 -2.878756 -14.917243 10.447520 5.161154 21.533807 -2.996579 -32.661309 -26.731241 23.958263 41.670176 1.212104 11.498135 0.467253 0.288130 0.171210 0.272480 18.688098 -11.127272 1.793158 -38.577189 -0.067295 -3.657773 0.603063 -7.562680 17.208073 -0.461949 -5.672333 2.222056 0.137540 -0.061050 0.044050 -4.913817 1.573652 -9.003577 21.512053 6.010702 14.392696 20.875428 1.655504 12.772861 -7.962840 1.686545 -16.738752 3.096054 -7.382789 43.874076 -1.492460 -3.579650 -6.864960 9.794820 -21.516016 7.088997 11.019068 3.742877 -0.426165 -34.563140 -44.210069 15.948591 -2.716156 3.848835 0.305910 -0.046320 0.094120 0.035270 6.418185 22.727530 7.913427 42.154973 30.954190 -0.789424 6.746585 41.519930 1.261400 2.035793 -1.519126 -0.071910 0.141540 -0.050770 -0.147200 
